# xmcd
#
# Track frame offsets:
#	150
#	24112
#	47662
#	75723
#	100325
#	126908
#	161810
#	184948
#	208370
#	230692
#	260484
#	286206
#	310346
#	332595
#
# Disc length: 4725 seconds
#
# Revision: 6
# Processed by: cddbd v1.5.2PL0 Copyright (c) Steve Scherf et al.
# Submitted via: EZCDAudioConverter 1.3.4.1
#
DISCID=c812730e
DTITLE=Massive Attack - Collected
DYEAR=2006
DGENRE=Trip-Hop
TTITLE0=Safe From Harm
TTITLE1=Karmacoma
TTITLE2=Angel
TTITLE3=Teardrop
TTITLE4=Inertia Creeps
TTITLE5=Protection
TTITLE6=Butterfly Caught
TTITLE7=Unfinished Sympathy
TTITLE8=Risingson
TTITLE9=What Your Soul Sings
TTITLE10=Future Proof
TTITLE11=Five Man Army
TTITLE12=Sly
TTITLE13=Live With Me
EXTD=
EXTT0=
EXTT1=
EXTT2=
EXTT3=
EXTT4=
EXTT5=
EXTT6=
EXTT7=
EXTT8=
EXTT9=
EXTT10=
EXTT11=
EXTT12=
EXTT13=
PLAYORDER=
